<svg xmlns="http://www.w3.org/2000/svg" xmlns:xlink="http://www.w3.org/1999/xlink" width="1926" height="494" viewBox="0 0 1926 494">
  <defs>
    <linearGradient id="linear-gradient" x1="-0.094" y1="-2.51" x2="1.061" y2="1.347" gradientUnits="objectBoundingBox">
      <stop offset="0" stop-color="#254399"/>
      <stop offset="1" stop-color="#00bac7"/>
    </linearGradient>
    <clipPath id="clip-path">
      <rect id="Rectangle_3134" data-name="Rectangle 3134" width="1926" height="494" transform="translate(-123 782)" fill="url(#linear-gradient)"/>
    </clipPath>
    <linearGradient id="linear-gradient-2" x1="1.235" y1="0.423" x2="0.5" y2="1" gradientUnits="objectBoundingBox">
      <stop offset="0" stop-color="#254399" stop-opacity="0.231"/>
      <stop offset="1" stop-color="#00bac7"/>
    </linearGradient>
    <linearGradient id="linear-gradient-4" x1="0.101" y1="-0.307" x2="0.888" y2="0.667" gradientUnits="objectBoundingBox">
      <stop offset="0" stop-color="#254399" stop-opacity="0.251"/>
      <stop offset="1" stop-color="#00bac7"/>
    </linearGradient>
  </defs>
  <g id="Group_10609" data-name="Group 10609" transform="translate(123 -2970)">
    <g id="Mask_Group_8452" data-name="Mask Group 8452" transform="translate(0 2188)" clip-path="url(#clip-path)">
      <path id="Path_14968" data-name="Path 14968" d="M368.378,444.21H527.961l-108.42,98.327v242.8a9.288,9.288,0,0,0,9.465,9.094h252.67l102.338-111.41V843.586c0,27.149-22.916,49.159-51.174,49.159H368.378c-28.257,0-51.164-22.009-51.164-49.159V493.369c0-27.15,22.906-49.159,51.164-49.159" transform="matrix(-0.53, 0.848, -0.848, -0.53, 2317.904, 967.779)" opacity="0.335" fill="url(#linear-gradient-2)"/>
      <path id="Path_14969" data-name="Path 14969" d="M342.423,444.21h78.629l-53.42,48.447v119.63a4.576,4.576,0,0,0,4.664,4.481H496.79l50.423-54.894v79.115c0,13.377-11.291,24.221-25.214,24.221H342.423c-13.923,0-25.209-10.844-25.209-24.221V468.431c0-13.377,11.286-24.221,25.209-24.221" transform="matrix(0.469, -0.883, 0.883, 0.469, 399.308, 1004.202)" opacity="0.335" fill="url(#linear-gradient-2)"/>
      <path id="Path_14970" data-name="Path 14970" d="M422.529,467.328H338.568l33.315-32.735a3.083,3.083,0,0,1,2.155-.881H439.29a16.636,16.636,0,0,1,16.637,16.634v57.982a3.091,3.091,0,0,1-.77,2.038l-32.628,36.956Z" transform="translate(1060.38 1349.344) rotate(158)" opacity="0.379" fill="url(#linear-gradient-4)"/>
    </g>
    <path id="Path_15649" data-name="Path 15649" d="M422.529,467.328H338.568l33.315-32.735a3.083,3.083,0,0,1,2.155-.881H439.29a16.636,16.636,0,0,1,16.637,16.634v57.982a3.091,3.091,0,0,1-.77,2.038l-32.628,36.956Z" transform="matrix(0.891, -0.454, 0.454, 0.891, -449.331, 2884.292)" opacity="0.379" fill="url(#linear-gradient-4)"/>
  </g>
</svg>
