<svg xmlns="http://www.w3.org/2000/svg" width="614.176" height="631.1" viewBox="0 0 614.176 631.1">
  <g id="Component_115_1" data-name="Component 115 – 1" transform="translate(0.676 0.676)">
    <path id="Path_15649" data-name="Path 15649" d="M49.664,453.15H204.572L99.329,353.811V108.516a9.19,9.19,0,0,1,9.188-9.187H353.782l99.339,112.557V49.665A49.673,49.673,0,0,0,403.447,0H49.664A49.664,49.664,0,0,0,0,49.665v353.82A49.664,49.664,0,0,0,49.664,453.15" transform="translate(0 212.727) rotate(-28)" fill="none" stroke="#00bac7" stroke-width="1"/>
    <path id="Path_15650" data-name="Path 15650" d="M26.673,243.372h83.2L53.346,190.021V58.281a4.936,4.936,0,0,1,4.934-4.934H190.005L243.357,113.8V26.673A26.678,26.678,0,0,0,216.678,0H26.673A26.673,26.673,0,0,0,0,26.673V216.7a26.673,26.673,0,0,0,26.673,26.674" transform="matrix(0.998, 0.07, -0.07, 0.998, 81.902, 370.669)" fill="#254399"/>
  </g>
</svg>
