<svg xmlns="http://www.w3.org/2000/svg" width="29.648" height="47.569" viewBox="0 0 29.648 47.569">
  <g id="Group_10350" data-name="Group 10350" transform="translate(-96.007 -0.001)">
    <path id="Path_15002" data-name="Path 15002" d="M260.137,278.017a.461.461,0,0,1-.25-.073l-2.665-1.709a.464.464,0,0,1-.105-.689l3.51-4.189a.464.464,0,0,1,.561-.118l1.777.876c.128.043.258.084.387.123l.142.044a.465.465,0,0,1,.247.7l-3.218,4.828A.465.465,0,0,1,260.137,278.017Zm-1.969-2.279L260,276.916l2.623-3.935-.045-.02-1.477-.728Z" transform="translate(-146.043 -245.994)" fill="#00bac7"/>
    <path id="Path_15003" data-name="Path 15003" d="M184.948,277.831a.463.463,0,0,1-.387-.207l-3.231-4.846a.465.465,0,0,1,.244-.7c.195-.063.389-.127.582-.2l1.724-.85a.465.465,0,0,1,.561.119l3.526,4.208a.464.464,0,0,1-.106.689l-2.664,1.709A.463.463,0,0,1,184.948,277.831Zm-2.508-5.063,2.641,3.961,1.836-1.178-2.953-3.524-1.422.7a.533.533,0,0,1-.05.021Z" transform="translate(-77.325 -245.808)" fill="#00bac7"/>
    <path id="Path_15004" data-name="Path 15004" d="M124.016,269.1H97.645a1.638,1.638,0,0,1-1.636-1.729l.858-15.4a3.112,3.112,0,0,1,2.358-2.857l3.583-.9c.68-.171,1.361-.377,2.024-.61l1.838-.907a1.051,1.051,0,0,0,.591-.949v-.989a.464.464,0,0,1,.707-.4,5.318,5.318,0,0,0,2.8.823,5.417,5.417,0,0,0,2.917-.893.464.464,0,0,1,.715.391v1.064a1.051,1.051,0,0,0,.591.949l1.93.952c.6.2,1.216.385,1.83.54l3.684.927a3.112,3.112,0,0,1,2.358,2.857l.857,15.4a1.638,1.638,0,0,1-1.636,1.729Zm-15.827-23.564v.215a1.975,1.975,0,0,1-1.108,1.783l-1.863.919a.446.446,0,0,1-.05.021c-.7.247-1.415.464-2.133.645l-3.583.9a2.187,2.187,0,0,0-1.657,2.008l-.858,15.4a.709.709,0,0,0,.708.749h26.371a.71.71,0,0,0,.708-.749l-.858-15.4a2.187,2.187,0,0,0-1.657-2.008l-3.684-.927c-.648-.163-1.3-.355-1.931-.571a.459.459,0,0,1-.056-.023l-1.958-.965a1.975,1.975,0,0,1-1.108-1.783v-.271a6.033,6.033,0,0,1-5.284.057Z" transform="translate(0 -221.534)" fill="#00bac7"/>
    <g id="Group_10349" data-name="Group 10349" transform="translate(100.657 0.001)">
      <path id="Path_15005" data-name="Path 15005" d="M349.377,402.859a.465.465,0,0,1-.465-.465v-9.972a.465.465,0,1,1,.929,0v9.972A.465.465,0,0,1,349.377,402.859Z" transform="translate(-330.065 -355.542)" fill="#00bac7"/>
      <path id="Path_15006" data-name="Path 15006" d="M152.674,402.859a.465.465,0,0,1-.465-.465v-9.972a.465.465,0,0,1,.929,0v9.972A.465.465,0,0,1,152.674,402.859Z" transform="translate(-151.637 -355.542)" fill="#00bac7"/>
      <path id="Path_15007" data-name="Path 15007" d="M322.028,133.817a2.931,2.931,0,0,1-.354-.024.465.465,0,0,1-.4-.529,6.637,6.637,0,0,0,.072-.958v-4.377a.464.464,0,0,1,.426-.463,3.181,3.181,0,1,1,.261,6.351Zm.242-5.42v3.909q0,.283-.023.572a2.257,2.257,0,0,0,2.034-2.243,2.223,2.223,0,0,0-.726-1.654A2.258,2.258,0,0,0,322.27,128.4Z" transform="translate(-304.986 -115.613)" fill="#00bac7"/>
      <path id="Path_15008" data-name="Path 15008" d="M149.24,133.782a3.183,3.183,0,1,1,0-6.366c.088,0,.175,0,.261.011a.464.464,0,0,1,.426.463v4.381a6.568,6.568,0,0,0,.072.958.465.465,0,0,1-.4.529A2.926,2.926,0,0,1,149.24,133.782ZM149,128.358a2.254,2.254,0,0,0,.023,4.484q-.022-.288-.023-.572Z" transform="translate(-146.057 -115.578)" fill="#00bac7"/>
      <path id="Path_15009" data-name="Path 15009" d="M236.05,205.7a2.414,2.414,0,0,1-2-1.064.465.465,0,1,1,.77-.52,1.487,1.487,0,0,0,2.465,0,.464.464,0,1,1,.77.52A2.413,2.413,0,0,1,236.05,205.7Z" transform="translate(-225.801 -184.966)" fill="#00bac7"/>
      <path id="Path_15010" data-name="Path 15010" d="M270.079,145.323a.461.461,0,0,1-.218-.054,2.07,2.07,0,0,0-1.386,0,.464.464,0,1,1-.436-.82,2.905,2.905,0,0,1,2.258,0,.464.464,0,0,1-.218.875Z" transform="translate(-256.482 -130.821)" fill="#00bac7"/>
      <path id="Path_15011" data-name="Path 15011" d="M217.391,145.323a.461.461,0,0,1-.218-.054,2.07,2.07,0,0,0-1.386,0,.464.464,0,1,1-.436-.82,2.906,2.906,0,0,1,2.258,0,.465.465,0,0,1-.219.875Z" transform="translate(-208.69 -130.821)" fill="#00bac7"/>
      <path id="Path_15012" data-name="Path 15012" d="M184.88,100.613c-4.1,0-7.172-4.167-7.172-7.893V86.634a2.867,2.867,0,0,1,1.132-2.292,2.656,2.656,0,0,1,2.462-.384,12.008,12.008,0,0,0,7.26.114l.134.445-.133-.445A2.765,2.765,0,0,1,191,84.5a2.6,2.6,0,0,1,1.055,2.1V92.72C192.051,96.445,188.984,100.613,184.88,100.613Zm-4.459-15.87a1.663,1.663,0,0,0-1.016.336,1.945,1.945,0,0,0-.768,1.554V92.72c0,3.986,3.3,6.964,6.242,6.964s6.243-2.978,6.243-6.964V86.607a1.659,1.659,0,0,0-.682-1.36,1.833,1.833,0,0,0-1.612-.286,12.927,12.927,0,0,1-7.821-.123A1.861,1.861,0,0,0,180.421,84.743Z" transform="translate(-174.767 -76.027)" fill="#00bac7"/>
      <path id="Path_15013" data-name="Path 15013" d="M232.6,319.737a2.373,2.373,0,0,1-2.347-2.069.464.464,0,0,1,.21-.45l1.343-.861a.467.467,0,0,1,.251-.074H233.2a.463.463,0,0,1,.251.074l1.293.829a.465.465,0,0,1,.211.442A2.365,2.365,0,0,1,232.6,319.737Zm-1.363-1.912a1.437,1.437,0,0,0,2.736-.028l-.911-.584H232.2Z" transform="translate(-222.43 -286.898)" fill="#00bac7"/>
      <path id="Path_15014" data-name="Path 15014" d="M229.322,354.66a.993.993,0,0,1-.707-.293l-1.687-1.688a.994.994,0,0,1-.287-.812l1.194-11.274a.465.465,0,0,1,.714-.342,1.44,1.44,0,0,0,1.548,0,.465.465,0,0,1,.714.342L232,351.867a1,1,0,0,1-.287.812l-1.688,1.688A.993.993,0,0,1,229.322,354.66Zm-.631-13.335-1.126,10.64a.07.07,0,0,0,.02.057l1.687,1.688a.061.061,0,0,0,.1,0l1.687-1.688a.07.07,0,0,0,.02-.057l-1.126-10.64A2.368,2.368,0,0,1,228.691,341.325Z" transform="translate(-219.149 -308.572)" fill="#00bac7"/>
      <path id="Path_15015" data-name="Path 15015" d="M156.691,13.035a.464.464,0,0,1-.441-.318c-.318-.955-1.762-5.818.821-8.453a4.746,4.746,0,0,1,3.961-2.5,4.167,4.167,0,0,0,2.831-1.31A1.078,1.078,0,0,1,164.671,0a.4.4,0,0,1,.067,0,.346.346,0,0,1,.068,0,1.078,1.078,0,0,1,.807.445,4.167,4.167,0,0,0,2.831,1.31,4.747,4.747,0,0,1,3.961,2.5c2.559,2.611,1.146,7.459.834,8.412a.464.464,0,0,1-.626.282,2.473,2.473,0,0,0-1.108-.186.451.451,0,0,1-.333-.134.465.465,0,0,1-.139-.331V10.581a1.646,1.646,0,0,0-.5-1.2,1.828,1.828,0,0,0-1.315-.514h-.037a4.929,4.929,0,0,0-1.146.194,11.923,11.923,0,0,1-7.115-.244,1.73,1.73,0,0,0-1.6.24,1.946,1.946,0,0,0-.768,1.555v1.7a.465.465,0,0,1-.5.463,2.215,2.215,0,0,0-1.154.214A.458.458,0,0,1,156.691,13.035Zm8.047-12.1a.149.149,0,0,0-.116.055,5.067,5.067,0,0,1-3.477,1.7A3.772,3.772,0,0,0,157.9,4.691a.472.472,0,0,1-.11.17c-2,1.956-1.181,5.731-.8,7.1a3.181,3.181,0,0,1,.627-.113V10.607a2.867,2.867,0,0,1,1.132-2.292,2.657,2.657,0,0,1,2.462-.384,10.939,10.939,0,0,0,6.608.221,5.381,5.381,0,0,1,1.393-.218,2.766,2.766,0,0,1,1.967.778,2.59,2.59,0,0,1,.781,1.868v1.274a3.206,3.206,0,0,1,.53.084,13.264,13.264,0,0,0,.48-2.857,5.319,5.319,0,0,0-1.284-4.22.459.459,0,0,1-.11-.17,3.768,3.768,0,0,0-3.247-2.009,5.066,5.066,0,0,1-3.477-1.7A.148.148,0,0,0,164.738.931Z" transform="translate(-154.678 -0.001)" fill="#00bac7"/>
    </g>
  </g>
</svg>
