<svg xmlns="http://www.w3.org/2000/svg" xmlns:xlink="http://www.w3.org/1999/xlink" width="85.626" height="82.554" viewBox="0 0 85.626 82.554">
  <defs>
    <radialGradient id="radial-gradient" cx="0.5" cy="0.5" r="1.795" gradientTransform="matrix(0.687, -0.727, 0.614, 0.58, -0.15, 0.573)" gradientUnits="objectBoundingBox">
      <stop offset="0" stop-color="#fff" stop-opacity="0"/>
      <stop offset="1" stop-color="#00bac7"/>
    </radialGradient>
  </defs>
  <g id="icon_10" transform="translate(-691.187 -2483.934)">
    <path id="Polygon_25" data-name="Polygon 25" d="M46.419,0a5,5,0,0,1,4.338,2.514L64.33,26.194a5,5,0,0,1,0,4.973L50.757,54.847a5,5,0,0,1-4.338,2.514H19.336A5,5,0,0,1,15,54.847L1.425,31.167a5,5,0,0,1,0-4.973L15,2.514A5,5,0,0,1,19.336,0Z" transform="translate(691.187 2516.812) rotate(-30)" fill="url(#radial-gradient)"/>
    <g id="vuesax_bulk_note-favorite" data-name="vuesax/bulk/note-favorite" transform="translate(717.211 2508.423)">
      <g id="vuesax_bulk_note-favorite-2" data-name="vuesax/bulk/note-favorite">
        <g id="note-favorite">
          <path id="Vector" d="M33.577,0V33.577H0V0Z" fill="#fff" opacity="0"/>
          <path id="Vector-2" data-name="Vector" d="M25.183,18.887c0,4.2-2.1,7-7,7H7c-4.9,0-7-2.8-7-7V7C0,2.8,2.1,0,7,0H18.188c4.9,0,7,2.8,7,7Z" transform="translate(2.798 4.897)" fill="#fff" opacity="0.4"/>
          <g id="Group" transform="translate(8.744 14.34)">
            <path id="Vector-3" data-name="Vector" d="M1.049,2.1A1.057,1.057,0,0,1,0,1.049,1.057,1.057,0,0,1,1.049,0H9.444a1.057,1.057,0,0,1,1.049,1.049A1.057,1.057,0,0,1,9.444,2.1Z" fill="#fff"/>
          </g>
          <g id="Group-2" data-name="Group" transform="translate(8.744 21.335)">
            <path id="Vector-4" data-name="Vector" d="M1.049,2.1A1.057,1.057,0,0,1,0,1.049,1.057,1.057,0,0,1,1.049,0h4.2A1.057,1.057,0,0,1,6.3,1.049,1.057,1.057,0,0,1,5.246,2.1Z" fill="#fff"/>
          </g>
          <path id="Vector-5" data-name="Vector" d="M7.345,14.69a7.22,7.22,0,0,1-4.295-1.4,7.359,7.359,0,0,1-1.987-2.169,7.29,7.29,0,0,1,1.694-9.5A7.3,7.3,0,0,1,7.345,0a7.209,7.209,0,0,1,4.547,1.581,7.287,7.287,0,0,1,2.8,5.763,7.189,7.189,0,0,1-1.064,3.777,6.482,6.482,0,0,1-1.454,1.735A7.249,7.249,0,0,1,7.345,14.69Zm0-10.842h0a3.5,3.5,0,0,1-3.5,3.5,3.5,3.5,0,0,1,3.5,3.5,3.5,3.5,0,0,1,3.5-3.5,3.5,3.5,0,0,1-3.5-3.5Z" transform="translate(17.488 17.488)" fill="#fff"/>
        </g>
      </g>
    </g>
  </g>
</svg>
