<svg xmlns="http://www.w3.org/2000/svg" width="30.771" height="47.569" viewBox="0 0 30.771 47.569">
  <g id="Group_10348" data-name="Group 10348" transform="translate(393.618 -1.882)">
    <path id="Path_14983" data-name="Path 14983" d="M-309.1,60.552a1.4,1.4,0,0,1-.4-.059,26,26,0,0,0-7.3-1,25.914,25.914,0,0,0-7.287,1,1.4,1.4,0,0,1-.4.058,1.41,1.41,0,0,1-1.343-1,1.4,1.4,0,0,1,.943-1.743,28.734,28.734,0,0,1,8.087-1.112,28.824,28.824,0,0,1,8.094,1.112,1.392,1.392,0,0,1,.833.676,1.391,1.391,0,0,1,.111,1.067,1.391,1.391,0,0,1-.675.833A1.4,1.4,0,0,1-309.1,60.552Zm-7.7-1.984a26.931,26.931,0,0,1,7.56,1.034.469.469,0,0,0,.36-.037.47.47,0,0,0,.228-.281.469.469,0,0,0-.037-.36.469.469,0,0,0-.28-.228,27.883,27.883,0,0,0-7.829-1.073,27.8,27.8,0,0,0-7.822,1.073.473.473,0,0,0-.318.588.48.48,0,0,0,.588.318A26.84,26.84,0,0,1-316.793,58.568Z" transform="translate(-61.443 -49.72)" fill="#00bac7"/>
    <path id="Path_14984" data-name="Path 14984" d="M-308.991,40.382a.458.458,0,0,1-.129-.018,27.628,27.628,0,0,0-6.7-1.014c-.648-.021-1.294-.021-1.94,0a27.556,27.556,0,0,0-6.687,1.011.459.459,0,0,1-.178.016,1.4,1.4,0,0,1-1.2-.991,1.4,1.4,0,0,1,.943-1.743,28.735,28.735,0,0,1,8.087-1.112,28.814,28.814,0,0,1,8.094,1.112,1.392,1.392,0,0,1,.833.676,1.393,1.393,0,0,1,.111,1.067,1.4,1.4,0,0,1-1.186.993Zm-7.8-1.978c.331,0,.667.006,1,.017a28.678,28.678,0,0,1,6.822,1.019.471.471,0,0,0,.324-.32.469.469,0,0,0-.037-.36.47.47,0,0,0-.281-.228,27.883,27.883,0,0,0-7.829-1.073,27.8,27.8,0,0,0-7.822,1.073.473.473,0,0,0-.318.588.469.469,0,0,0,.328.318,28.581,28.581,0,0,1,6.812-1.018C-317.458,38.41-317.122,38.4-316.791,38.4Z" transform="translate(-61.445 -31.43)" fill="#00bac7"/>
    <path id="Path_14985" data-name="Path 14985" d="M-303.1,7.161a.463.463,0,0,1-.179-.036l-.058-.025a27.89,27.89,0,0,0-7.818-1.069A27.8,27.8,0,0,0-318.972,7.1l-.055.024a.463.463,0,0,1-.545-.143.465.465,0,0,1-.005-.564,10.633,10.633,0,0,1,8.423-4.536,10.633,10.633,0,0,1,8.423,4.536.465.465,0,0,1-.005.564A.465.465,0,0,1-303.1,7.161Zm-8.055-2.06a29.771,29.771,0,0,1,6.727.749,9.387,9.387,0,0,0-6.723-3.039,9.385,9.385,0,0,0-6.722,3.039A29.673,29.673,0,0,1-311.159,5.1Z" transform="translate(-67.078)" fill="#00bac7"/>
    <path id="Path_14986" data-name="Path 14986" d="M-340.039,97.793a6.555,6.555,0,0,1-3.371-.934l-1.9-1.139-.013-.008-.6.3a.516.516,0,0,1-.05.021c-.724.256-1.469.482-2.215.669l-2.795.7a.464.464,0,0,1-.4-.088.465.465,0,0,1-.174-.375c.323-11.678,2.574-17.711,3.022-18.8a.465.465,0,0,1,.6-.257.457.457,0,0,0,.3.014,26.831,26.831,0,0,1,7.552-1.034,26.931,26.931,0,0,1,7.56,1.034.467.467,0,0,0,.3-.015.465.465,0,0,1,.6.257c.448,1.091,2.7,7.122,3.022,18.8a.465.465,0,0,1-.173.375.464.464,0,0,1-.4.088l-2.9-.73c-.674-.169-1.349-.369-2.006-.592a.432.432,0,0,1-.056-.023l-.651-.321-1.87,1.122A6.559,6.559,0,0,1-340.039,97.793ZM-344.7,95l1.766,1.059a5.626,5.626,0,0,0,2.893.8,5.625,5.625,0,0,0,2.893-.8l1.794-1.076a.463.463,0,0,1,.184-.221.465.465,0,0,1,.453-.023l.952.469c.624.212,1.265.4,1.9.561l2.3.58c-.347-10.2-2.167-15.843-2.8-17.509a1.389,1.389,0,0,1-.444-.057,26,26,0,0,0-7.3-1,25.912,25.912,0,0,0-7.287,1,1.425,1.425,0,0,1-.445.058c-.629,1.666-2.449,7.309-2.8,17.508l2.2-.553c.708-.178,1.416-.392,2.105-.635l.957-.472a.465.465,0,0,1,.5.061A.465.465,0,0,1-344.7,95Zm-3.607,1.247h0Z" transform="translate(-38.146 -68.015)" fill="#00bac7"/>
    <path id="Path_14987" data-name="Path 14987" d="M-300.554,176.6a6.555,6.555,0,0,1-3.371-.934l-1.9-1.139-.014-.008-.6.3a.49.49,0,0,1-.05.021c-.292.1-.6.205-.941.31a.463.463,0,0,1-.413-.07.465.465,0,0,1-.189-.374V164.2a.464.464,0,0,1,.465-.465.464.464,0,0,1,.465.465c0,4.152,3.434,7.254,6.505,7.254s6.5-3.1,6.505-7.254a.464.464,0,0,1,.465-.465.464.464,0,0,1,.465.465v10.5a.465.465,0,0,1-.188.373.466.466,0,0,1-.411.071c-.247-.075-.54-.165-.84-.267a.434.434,0,0,1-.056-.023l-.651-.321-1.87,1.122A6.554,6.554,0,0,1-300.554,176.6Zm-4.659-2.79,1.766,1.059a5.626,5.626,0,0,0,2.893.8,5.625,5.625,0,0,0,2.893-.8l1.794-1.076a.46.46,0,0,1,.184-.221.465.465,0,0,1,.453-.024l.952.469.182.061v-6.138a7.539,7.539,0,0,1-6.505,4.448,7.541,7.541,0,0,1-6.5-4.448v6.126l.278-.1.957-.472a.465.465,0,0,1,.5.061A.467.467,0,0,1-305.213,173.807Z" transform="translate(-77.632 -146.818)" fill="#00bac7"/>
    <path id="Path_14988" data-name="Path 14988" d="M-248.963,204.007a2.49,2.49,0,0,1-2.066-1.1.464.464,0,0,1,.125-.645.465.465,0,0,1,.645.125,1.563,1.563,0,0,0,1.3.689,1.563,1.563,0,0,0,1.3-.689.464.464,0,0,1,.645-.125.464.464,0,0,1,.125.645A2.489,2.489,0,0,1-248.963,204.007Z" transform="translate(-129.27 -181.693)" fill="#00bac7"/>
    <path id="Path_14991" data-name="Path 14991" d="M-130.348,400.822a.465.465,0,0,1-.465-.465V390a.465.465,0,0,1,.465-.465.464.464,0,0,1,.465.465v10.362A.464.464,0,0,1-130.348,400.822Z" transform="translate(-238.388 -351.633)" fill="#00bac7"/>
    <path id="Path_14992" data-name="Path 14992" d="M-334.754,400.822a.465.465,0,0,1-.465-.465V390a.465.465,0,0,1,.465-.465.464.464,0,0,1,.465.465v10.362A.464.464,0,0,1-334.754,400.822Z" transform="translate(-52.973 -351.633)" fill="#00bac7"/>
    <path id="Path_14993" data-name="Path 14993" d="M-364.531,291.079h-27.4a1.691,1.691,0,0,1-1.224-.527,1.69,1.69,0,0,1-.458-1.251l.891-16a3.215,3.215,0,0,1,2.436-2.952l3.723-.937c.708-.178,1.417-.392,2.105-.635l.957-.472a.465.465,0,0,1,.5.061.465.465,0,0,1,.154.25l1.766,1.059a5.626,5.626,0,0,0,2.893.8,5.625,5.625,0,0,0,2.893-.8l1.794-1.076a.463.463,0,0,1,.184-.221.463.463,0,0,1,.452-.023l.952.469c.625.212,1.265.4,1.9.561l3.828.964a3.215,3.215,0,0,1,2.436,2.952l.891,16a1.69,1.69,0,0,1-.458,1.251A1.69,1.69,0,0,1-364.531,291.079Zm-18.938-21.753-.6.3a.407.407,0,0,1-.05.021c-.724.257-1.469.482-2.214.67l-3.723.937a2.29,2.29,0,0,0-1.735,2.1l-.891,16a.75.75,0,0,0,.205.561.748.748,0,0,0,.549.236h27.4a.749.749,0,0,0,.549-.236.749.749,0,0,0,.205-.561l-.891-16a2.29,2.29,0,0,0-1.735-2.1l-3.828-.964c-.674-.169-1.349-.369-2.006-.592a.439.439,0,0,1-.056-.023l-.651-.321-1.87,1.122a6.554,6.554,0,0,1-3.371.934,6.555,6.555,0,0,1-3.371-.934l-1.9-1.139Z" transform="translate(0 -241.629)" fill="#00bac7"/>
    <path id="Path_14994" data-name="Path 14994" d="M-232.047,312.37a.465.465,0,0,1-.465-.465v-19.3a.464.464,0,0,1,.465-.465.464.464,0,0,1,.465.465v19.3A.464.464,0,0,1-232.047,312.37Z" transform="translate(-146.138 -263.294)" fill="#00bac7"/>
    <path id="Path_14995" data-name="Path 14995" d="M-265.776,241.075a.464.464,0,0,1-.465-.465.51.51,0,0,0-.283-.458l-2.823-1.411-.049-.019a.464.464,0,0,1-.26-.267.463.463,0,0,1,.019-.372,1.107,1.107,0,0,0,.121-.5v-1.028a.465.465,0,0,1,.237-.405.464.464,0,0,1,.47.009,5.546,5.546,0,0,0,2.921.858,5.646,5.646,0,0,0,3.041-.931.466.466,0,0,1,.474-.017.465.465,0,0,1,.242.408v1.106a1.108,1.108,0,0,0,.133.521.466.466,0,0,1,.032.359.466.466,0,0,1-.235.274l-2.828,1.414a.51.51,0,0,0-.283.458A.464.464,0,0,1-265.776,241.075Zm-2.866-3.021,2.534,1.267a1.451,1.451,0,0,1,.332.229,1.457,1.457,0,0,1,.332-.229l2.451-1.226a2.013,2.013,0,0,1-.067-.511v-.311a6.427,6.427,0,0,1-2.827.674,6.308,6.308,0,0,1-2.7-.613v.25A2.011,2.011,0,0,1-268.643,238.055Zm-.716.68h0Z" transform="translate(-112.417 -212.379)" fill="#00bac7"/>
    <path id="Path_14996" data-name="Path 14996" d="M-300.6,111.546c-4.255,0-7.434-4.321-7.434-8.184V99.305a1.73,1.73,0,0,1,1.2-1.656,20.267,20.267,0,0,1,12.47,0,1.729,1.729,0,0,1,1.2,1.656v4.057C-293.163,107.225-296.342,111.546-300.6,111.546Zm0-13.955a19.462,19.462,0,0,0-5.951.943.8.8,0,0,0-.554.771v4.057c0,4.152,3.434,7.254,6.5,7.254s6.505-3.1,6.505-7.254V99.305a.8.8,0,0,0-.554-.771A19.473,19.473,0,0,0-300.6,97.591Z" transform="translate(-77.635 -85.978)" fill="#00bac7"/>
    <path id="Path_14997" data-name="Path 14997" d="M-227.967,182.9a.767.767,0,0,1-.758-.681c-.217-1.828-2.449-2.032-3.4-2.034a.9.9,0,0,1-.893-.894v-.477a1.179,1.179,0,0,1,.358-.851,1.21,1.21,0,0,1,.874-.339,4.775,4.775,0,0,1,3.513,1.348,4.467,4.467,0,0,1,1.073,3.18.466.466,0,0,1-.115.287c-.1.11-.2.217-.3.322a.466.466,0,0,1-.3.139Zm.3-.769h0Zm-4.424-2.875a4.456,4.456,0,0,1,3.807,1.561,2.99,2.99,0,0,0-.672-1.213,3.9,3.9,0,0,0-2.858-1.053.28.28,0,0,0-.2.076.254.254,0,0,0-.077.186Z" transform="translate(-145.681 -159.415)" fill="#00bac7"/>
    <path id="Path_14998" data-name="Path 14998" d="M-284.9,182.905l-.054,0a.463.463,0,0,1-.3-.139q-.154-.157-.3-.322a.465.465,0,0,1-.116-.287,4.467,4.467,0,0,1,1.074-3.18,4.772,4.772,0,0,1,3.513-1.348,1.194,1.194,0,0,1,.873.339,1.178,1.178,0,0,1,.358.851v.477a.9.9,0,0,1-.893.894c-.949,0-3.181.206-3.4,2.034A.766.766,0,0,1-284.9,182.905Zm3.85-4.349h-.008a3.9,3.9,0,0,0-2.858,1.053,2.991,2.991,0,0,0-.672,1.213,4.456,4.456,0,0,1,3.807-1.561v-.442a.253.253,0,0,0-.077-.186A.273.273,0,0,0-281.052,178.557Z" transform="translate(-97.914 -159.418)" fill="#00bac7"/>
    <path id="Path_14999" data-name="Path 14999" d="M-288.843,212.813a7.365,7.365,0,0,1-6.162-3.8.464.464,0,0,1,.109-.606.464.464,0,0,1,.614.034,4.614,4.614,0,0,0,2.608,1.284,2.923,2.923,0,0,1,1.356.227,3.471,3.471,0,0,0,2.909,0,2.921,2.921,0,0,1,1.356-.227,4.491,4.491,0,0,0,2.608-1.285.464.464,0,0,1,.564-.069l.031.018a.464.464,0,0,1,.214.288.464.464,0,0,1-.054.354A7.363,7.363,0,0,1-288.843,212.813Zm-3.61-2.26a5.8,5.8,0,0,0,3.61,1.331,5.8,5.8,0,0,0,3.629-1.347,3.255,3.255,0,0,1-.84.117,2.054,2.054,0,0,0-.967.142,4.4,4.4,0,0,1-3.687,0,2.048,2.048,0,0,0-.967-.142A3.21,3.21,0,0,1-292.453,210.553Z" transform="translate(-89.389 -187.245)" fill="#00bac7"/>
    <path id="Path_15000" data-name="Path 15000" d="M-232.047,259.166a.465.465,0,0,1-.465-.465v-1.083a1.434,1.434,0,0,1,.8-1.289l2.834-1.417a1.4,1.4,0,0,1,1.8.485l.511.778a.652.652,0,0,1,.091.5.654.654,0,0,1-.3.414l-1.9,1.139A6.554,6.554,0,0,1-232.047,259.166Zm3.794-3.473a.472.472,0,0,0-.212.05l-2.834,1.417a.51.51,0,0,0-.283.458v.6a5.628,5.628,0,0,0,2.429-.782l1.652-.991-.352-.537A.476.476,0,0,0-228.253,255.693Zm.909.993h0Z" transform="translate(-146.138 -229.387)" fill="#00bac7"/>
    <path id="Path_15001" data-name="Path 15001" d="M-282.057,259.167a6.555,6.555,0,0,1-3.371-.934l-1.9-1.139a.654.654,0,0,1-.3-.414.655.655,0,0,1,.091-.5l.511-.778a1.4,1.4,0,0,1,1.8-.486l2.834,1.417a1.434,1.434,0,0,1,.8,1.289V258.7A.464.464,0,0,1-282.057,259.167Zm-4.545-2.721,1.652.991a5.62,5.62,0,0,0,2.429.782v-.6a.51.51,0,0,0-.283-.458l-2.834-1.417a.476.476,0,0,0-.611.164Zm-.547-.014h0Z" transform="translate(-96.129 -229.388)" fill="#00bac7"/>
  </g>
</svg>
