<svg xmlns="http://www.w3.org/2000/svg" width="28.541" height="47.569" viewBox="0 0 28.541 47.569">
  <g id="Group_10339" data-name="Group 10339" transform="translate(0)">
    <path id="Path_14974" data-name="Path 14974" d="M123.65.007,111.014,1.586h-1.487L96.891.007A.792.792,0,0,0,96,.793V7.136a.793.793,0,0,0,.465.722l8.505,3.866,2.109,3.33L101.572,37.87a.793.793,0,0,0,.184.719l7.928,8.721a.793.793,0,0,0,1.173,0l7.928-8.721a.794.794,0,0,0,.184-.719L113.6,15.623c.059-.06,2.011-3.917,2.011-3.917l8.465-3.848a.792.792,0,0,0,.465-.722V.793a.792.792,0,0,0-.891-.786ZM97.586,6.625V1.692l10.724,1.34-3.193,7.019Zm10.931,9.231h3.509l.982,4.071-7.215,7.215Zm8.81,21.977L110.271,45.6l-5.259-5.787L115.381,29.76Zm-12.192,2.194-1.92-2.194,2.561-10.808,7.171-7.373,2.5,10.3m-2.89-15.681H108.46l-2.047-3.233,3.575-7.867h.564l3.6,7.911Zm10.4-7.645-7.532,3.425-3.193-7.019,10.724-1.34Z" transform="translate(-96 -0.001)" fill="#00bac7"/>
    <path id="Path_14975" data-name="Path 14975" d="M201.111,196.651l-7.46,7,.3-1.06,6.9-6.995Z" transform="translate(-183.973 -176.21)" fill="#f4fcfd"/>
    <path id="Path_14976" data-name="Path 14976" d="M194.809,298.3l.186.834-10.158,9.908-.636-.727Z" transform="translate(-175.46 -268.737)" fill="#f4fcfd"/>
    <path id="Path_14980" data-name="Path 14980" d="M188.449,7.656A7.656,7.656,0,1,0,196.1,0,7.665,7.665,0,0,0,188.449,7.656Zm13.92,0A6.264,6.264,0,1,1,196.1,1.392,6.271,6.271,0,0,1,202.369,7.656Z" transform="translate(-181.834 18)" fill="#254399"/>
    <circle id="Ellipse_226" data-name="Ellipse 226" cx="7" cy="7" r="7" transform="translate(7.367 18.667)" fill="#254399"/>
    <path id="Path_14981" data-name="Path 14981" d="M267.319,40.73v.87a2.226,2.226,0,0,0,.742,4.326.742.742,0,0,1,0,1.484,1.342,1.342,0,0,1-.964-.561.742.742,0,0,0-1.136.955,3.079,3.079,0,0,0,1.358.966v.866a.742.742,0,0,0,1.484,0v-.87a2.226,2.226,0,0,0-.742-4.325.742.742,0,0,1,0-1.484,1.191,1.191,0,0,1,.8.388.742.742,0,1,0,1.032-1.067,2.867,2.867,0,0,0-1.093-.683V40.73a.742.742,0,1,0-1.484,0Z" transform="translate(-253.767 -19.823)" fill="#fff"/>
  </g>
</svg>
