<svg xmlns="http://www.w3.org/2000/svg" xmlns:xlink="http://www.w3.org/1999/xlink" width="85.626" height="82.554" viewBox="0 0 85.626 82.554">
  <defs>
    <radialGradient id="radial-gradient" cx="0.5" cy="0.5" r="1.795" gradientTransform="matrix(0.687, -0.727, 0.614, 0.58, -0.15, 0.573)" gradientUnits="objectBoundingBox">
      <stop offset="0" stop-color="#fff" stop-opacity="0"/>
      <stop offset="1" stop-color="#00bac7"/>
    </radialGradient>
  </defs>
  <g id="icon_9" transform="translate(-948.187 -2483.934)">
    <path id="Polygon_24" data-name="Polygon 24" d="M46.419,0a5,5,0,0,1,4.338,2.514L64.33,26.194a5,5,0,0,1,0,4.973L50.757,54.847a5,5,0,0,1-4.338,2.514H19.336A5,5,0,0,1,15,54.847L1.425,31.167a5,5,0,0,1,0-4.973L15,2.514A5,5,0,0,1,19.336,0Z" transform="translate(948.187 2516.812) rotate(-30)" fill="url(#radial-gradient)"/>
    <g id="vuesax_bulk_user-octagon" data-name="vuesax/bulk/user-octagon" transform="translate(974.211 2508.423)">
      <g id="vuesax_bulk_user-octagon-2" data-name="vuesax/bulk/user-octagon">
        <g id="user-octagon">
          <path id="Vector" d="M33.577,0V33.577H0V0Z" fill="#fff" opacity="0"/>
          <path id="Vector-2" data-name="Vector" d="M25.421,18.775a4.44,4.44,0,0,1-2.2,3.819l-8.31,4.8a4.425,4.425,0,0,1-4.407,0l-8.31-4.8A4.406,4.406,0,0,1,0,18.775V9.206A4.44,4.44,0,0,1,2.2,5.386l8.31-4.8a4.425,4.425,0,0,1,4.407,0l8.31,4.8a4.423,4.423,0,0,1,2.2,3.819Z" transform="translate(4.071 2.798)" fill="#fff" opacity="0.4"/>
          <g id="Group" transform="translate(11.632 10.269)">
            <path id="Vector-3" data-name="Vector" d="M3.26,6.52A3.26,3.26,0,1,1,6.52,3.26,3.26,3.26,0,0,1,3.26,6.52Z" transform="translate(1.896)" fill="#fff"/>
            <path id="Vector-4" data-name="Vector" d="M10.066,2.364A5.888,5.888,0,0,0,5.155,0,5.888,5.888,0,0,0,.244,2.364a1.4,1.4,0,0,0,1.161,2.2H8.9A1.4,1.4,0,0,0,10.066,2.364Z" transform="translate(0 8.478)" fill="#fff"/>
          </g>
        </g>
      </g>
    </g>
  </g>
</svg>
