<svg xmlns="http://www.w3.org/2000/svg" width="47.554" height="47.569" viewBox="0 0 47.554 47.569">
  <g id="Group_10340" data-name="Group 10340" transform="translate(0)">
    <path id="Path_14977" data-name="Path 14977" d="M188.449,10.217A10.217,10.217,0,1,0,198.666,0,10.229,10.229,0,0,0,188.449,10.217Zm18.577,0a8.36,8.36,0,1,1-8.36-8.359A8.369,8.369,0,0,1,207.026,10.217Z" transform="translate(-170.987)" fill="#254399"/>
    <path id="Path_14978" data-name="Path 14978" d="M11.2,239.887a.929.929,0,0,0,1.311.008l4.5-4.436a2.807,2.807,0,0,0,.661-2.882l.969-.934a2.77,2.77,0,0,1,1.934-.781H32.925a8.316,8.316,0,0,0,5.831-2.369c.065-.063-.49.591,8.424-10.063a3.715,3.715,0,0,0-5.654-4.822l-5.481,5.633a3.733,3.733,0,0,0-2.888-1.383H22.8a11.983,11.983,0,0,0-4.651-.929,11.491,11.491,0,0,0-10.474,5.939,2.774,2.774,0,0,0-2.484.77L.772,228.069a.929.929,0,0,0,0,1.31Zm6.949-21.1a10.14,10.14,0,0,1,4.089.851.927.927,0,0,0,.372.078H33.157a1.858,1.858,0,1,1,0,3.715H25.579a.929.929,0,0,0,0,1.857h7.578a3.71,3.71,0,0,0,3.683-4.2c5.3-5.45,6.05-6.216,6.081-6.254a1.858,1.858,0,1,1,2.837,2.4l-8.331,9.959a6.467,6.467,0,0,1-4.5,1.811H20.577a4.618,4.618,0,0,0-3.224,1.3l-.789.762-7.277-7.276A9.59,9.59,0,0,1,18.148,218.786ZM6.5,224.95a.927.927,0,0,1,1.15-.131c.161.1-.3-.322,8.045,8.012a.931.931,0,0,1,.005,1.309l-3.839,3.782-9.126-9.2Z" transform="translate(-0.501 -192.593)" fill="#00bac7"/>
    <circle id="Ellipse_227" data-name="Ellipse 227" cx="9.5" cy="9.5" r="9.5" transform="translate(18.073 0.667)" fill="#254399"/>
    <path id="Path_14979" data-name="Path 14979" d="M267.7,40.917v1.088a2.786,2.786,0,0,0,.929,5.413.929.929,0,1,1,0,1.857,1.68,1.68,0,0,1-1.206-.7.929.929,0,0,0-1.422,1.2,3.853,3.853,0,0,0,1.7,1.21v1.084a.929.929,0,0,0,1.857,0V50.974a2.786,2.786,0,0,0-.929-5.413.929.929,0,0,1,0-1.858,1.491,1.491,0,0,1,1,.486.929.929,0,1,0,1.292-1.335A3.588,3.588,0,0,0,269.561,42V40.917a.929.929,0,1,0-1.857,0Z" transform="translate(-241.139 -36.273)" fill="#fff"/>
  </g>
</svg>
