<svg xmlns="http://www.w3.org/2000/svg" width="175.693" height="48.24" viewBox="0 0 175.693 48.24">
  <g id="Group_1" data-name="Group 1" transform="translate(-162.938 -433.712)">
    <path id="Path_21" data-name="Path 21" d="M321.55,444.21h13.526l-9.189,8.674V474.3a.8.8,0,0,0,.8.8H348.1l8.674-9.828v14.164a4.337,4.337,0,0,1-4.337,4.336H321.55a4.336,4.336,0,0,1-4.336-4.336V448.547a4.336,4.336,0,0,1,4.336-4.337" transform="translate(-26.82 -1.825)" fill="#254399"/>
    <path id="Path_22" data-name="Path 22" d="M360.457,442.476H338.568l8.685-8.534a.8.8,0,0,1,.562-.23h17.011a4.337,4.337,0,0,1,4.337,4.336v15.116a.806.806,0,0,1-.2.531l-8.506,9.635Z" transform="translate(-30.532 0)" fill="#00bac7"/>
    <path id="Path_23" data-name="Path 23" d="M293.935,442.422H279.387a1.216,1.216,0,0,0-1.216,1.217v10.826a1.216,1.216,0,0,1-1.216,1.216h-3.761a1.837,1.837,0,0,0-.235.024h-1.149c-.162,0-.311-.012-.462-.024h-1.513a1.216,1.216,0,0,1-1.216-1.216v-9.589a1.216,1.216,0,0,0-1.22-1.216l-6.213.019a.608.608,0,0,1-.464-1l5.436-6.356a.387.387,0,0,0-.149-.525l-2.43-2.029a.357.357,0,0,0-.488.113l-8.225,9.654a4.99,4.99,0,0,1-.375.416.691.691,0,0,0-.226.493l.012,2.123a.608.608,0,0,0,.608.6h8.42a1.216,1.216,0,0,1,1.216,1.216v6.079a1.216,1.216,0,0,1-1.216,1.216H262.18c-.216.014-.446.024-.7.024H247.654l-.02,0-.018,0H246.3a3.35,3.35,0,0,1-.388-.024h-.2a1.216,1.216,0,0,1-1.216-1.216V434.086a.375.375,0,0,0-.375-.374h-3.461a.372.372,0,0,0-.372.372v20.645a5.341,5.341,0,0,0,1.005,3.587,4.259,4.259,0,0,0,3.353,1.147h2.968l.021,0,.017,0H281.5a2.416,2.416,0,0,0,.535-.059h11.9a1.216,1.216,0,0,0,1.216-1.216V443.639a1.216,1.216,0,0,0-1.216-1.217m-2.507,12.651a.608.608,0,0,1-.608.608H282.5a.608.608,0,0,1-.608-.608v-8.518a.609.609,0,0,1,.608-.608h8.319a.609.609,0,0,1,.608.608Z" transform="translate(-13.447 0)" fill="#254399"/>
    <path id="Path_24" data-name="Path 24" d="M221.7,444.168h-3.46a.371.371,0,0,0-.372.372v1.706h.008l-.007,10.08a1.217,1.217,0,0,1-1.217,1.216h-2.861a1.216,1.216,0,0,1-1.216-1.216l.007-9.02a.322.322,0,0,0-.346-.207h-3.464a.387.387,0,0,0-.249.076l-.007,9.151a1.216,1.216,0,0,1-1.217,1.216h-2.987a1.216,1.216,0,0,1-1.216-1.216v-1.132l.007-7.72a.375.375,0,0,0-.375-.375h-3.461a.369.369,0,0,0-.283.1l-.007,9.127a1.216,1.216,0,0,1-1.217,1.216h-6a1.216,1.216,0,0,1-1.216-1.216v-1.012l.007-7.667v-3.1a.374.374,0,0,0-.374-.374h-3.459a.374.374,0,0,0-.374.374v4.491l-.007,5.232v2.041a1.216,1.216,0,0,1-1.217,1.216H168.363a1.217,1.217,0,0,1-1.217-1.216v-.775l.007-6.739V446.91a.376.376,0,0,0-.376-.376h-3.456a.376.376,0,0,0-.376.376l-.007,9.6a5.389,5.389,0,0,0,1.015,3.614,4.3,4.3,0,0,0,3.381,1.157h50.044A5.015,5.015,0,0,0,221,460.209a5.085,5.085,0,0,0,1.07-3.663l.007-12a.375.375,0,0,0-.375-.375" transform="translate(0 -1.818)" fill="#254399"/>
    <path id="Path_25" data-name="Path 25" d="M191.61,482.256h0a1.155,1.155,0,0,1,1.034.5l3.75,7.246c.034.078-.007.117-.121.117h-1.2a.219.219,0,0,1-.224-.117l-.751-1.459a.641.641,0,0,0-.575-.278h-3.867a.641.641,0,0,0-.575.278L188.326,490a.241.241,0,0,1-.224.117h-1.2c-.115,0-.154-.04-.121-.117l3.8-7.249a1.154,1.154,0,0,1,1.033-.5m1.757,4.87L191.748,484a.217.217,0,0,0-.34,0l-1.6,3.121c-.041.08.046.164.17.164H193.2c.125,0,.212-.083.17-.164" transform="translate(-4.142 -8.439)" fill="#00bac7"/>
    <path id="Path_26" data-name="Path 26" d="M163.842,482.185h0a.988.988,0,0,1,.825.365l3.371,5.159,3.293-5.155a.979.979,0,0,1,.824-.368c.5,0,.9.274.9.613v7.15c0,.119-.142.216-.317.216h-.81c-.176,0-.317-.1-.317-.216V484.9c0-.114-.229-.148-.3-.044l-2.66,4.038a.345.345,0,0,1-.286.127l-.728.006a.347.347,0,0,1-.292-.127l-2.665-4.03c-.069-.1-.3-.07-.3.044v5.035c0,.119-.142.216-.317.216h-.81c-.175,0-.317-.1-.317-.216V482.8c0-.34.4-.616.9-.616" transform="translate(0 -8.427)" fill="#00bac7"/>
    <path id="Path_27" data-name="Path 27" d="M210.039,482.3c0-.064.077-.116.172-.116h1.2c.1,0,.174.053.174.119v2.983c0,.392.72.566,1.081.263l3.89-3.259a.364.364,0,0,1,.275-.106h1.41c.058,0,.1.013.112.041s0,.06-.043.1l-3.376,2.769a.316.316,0,0,0-.059.474l3.8,4.467c.08.086.045.129-.1.129H217.2a.291.291,0,0,1-.24-.107l-2.849-3.409a.787.787,0,0,0-1-.059l-1.379,1.135a.347.347,0,0,0-.14.265v2.055c0,.065-.077.118-.172.118h-1.2c-.1,0-.173-.053-.173-.119Z" transform="translate(-8.188 -8.427)" fill="#00bac7"/>
    <path id="Path_28" data-name="Path 28" d="M235.817,482.327h0a1.156,1.156,0,0,1,1.034.5l3.75,7.246c.034.078-.007.117-.121.117h-1.2a.219.219,0,0,1-.224-.117l-.751-1.459a.641.641,0,0,0-.575-.278h-3.867a.641.641,0,0,0-.575.278l-.751,1.459a.241.241,0,0,1-.224.117h-1.2c-.115,0-.154-.04-.121-.117l3.8-7.249a1.154,1.154,0,0,1,1.033-.5m1.757,4.87-1.619-3.122a.217.217,0,0,0-.34,0l-1.6,3.121c-.041.08.046.164.17.164H237.4c.125,0,.212-.083.17-.164" transform="translate(-11.827 -8.452)" fill="#00bac7"/>
    <path id="Path_29" data-name="Path 29" d="M257.656,490.266a9.056,9.056,0,0,1-1.221-.082,10.263,10.263,0,0,1-1.136-.217,7.546,7.546,0,0,1-.98-.316,5.322,5.322,0,0,1-.774-.382q-.121-.082-.017-.176l.757-.611a.207.207,0,0,1,.24-.012,7.918,7.918,0,0,0,1.411.563,6.333,6.333,0,0,0,1.858.258,3.974,3.974,0,0,0,1.9-.375,1.116,1.116,0,0,0,.679-.986.933.933,0,0,0-.12-.469,1.07,1.07,0,0,0-.4-.375,2.954,2.954,0,0,0-.749-.282,7.331,7.331,0,0,0-1.17-.176l-.584-.059q-3.441-.317-3.441-2.207a1.8,1.8,0,0,1,.266-.962,2.254,2.254,0,0,1,.766-.739,4.047,4.047,0,0,1,1.2-.469,6.967,6.967,0,0,1,1.582-.164,9.224,9.224,0,0,1,1.97.2,6.822,6.822,0,0,1,1.591.535c.092.046.1.1.035.164l-.585.646a.222.222,0,0,1-.241.023,8.014,8.014,0,0,0-1.394-.452,6.687,6.687,0,0,0-1.428-.146,3.117,3.117,0,0,0-1.651.358,1.07,1.07,0,0,0-.568.933.948.948,0,0,0,.55.827,4.994,4.994,0,0,0,1.909.452l.568.06a6.027,6.027,0,0,1,2.58.7,1.7,1.7,0,0,1,.861,1.525,1.835,1.835,0,0,1-.267.968,2.239,2.239,0,0,1-.809.757,4.738,4.738,0,0,1-1.342.5,8.392,8.392,0,0,1-1.85.182" transform="translate(-15.74 -8.4)" fill="#00bac7"/>
    <path id="Path_30" data-name="Path 30" d="M275.923,483.016c0-.459.545-.831,1.219-.831h6.007c.1,0,.172.052.172.117v.739c0,.064-.077.117-.172.117h-5.677v2.488h4.834c.1,0,.172.053.172.117v.739c0,.064-.077.117-.172.117h-4.834v2.57h5.677c.1,0,.172.052.172.117v.74c0,.064-.077.117-.172.117h-6.007c-.673,0-1.219-.373-1.219-.832Z" transform="translate(-19.642 -8.427)" fill="#00bac7"/>
    <path id="Path_31" data-name="Path 31" d="M304.311,485.943a.661.661,0,0,0,.527-.564V482.8c0-.346-.411-.626-.918-.626h-2.2v.015c-.117,0-.225-.015-.349-.015h-3.107c-.675,0-1.222.373-1.222.834v6.332c0,.46.547.834,1.222.834H304.1c.506,0,.918-.28.918-.626v-3c0-.3-.3-.542-.706-.608m-5.1-2.817h3.573c.337,0,.611.187.611.416v1.673c0,.23-.273.416-.611.416h-3.572c-.338,0-.611-.186-.611-.416v-1.673c0-.23.273-.416.611-.416m4.363,3.8v2.006c0,.187-.222.339-.5.339H299.1c-.274,0-.5-.152-.5-.339v-2.006c0-.187.222-.339.5-.339h3.98c.274,0,.5.152.5.339" transform="translate(-23.314 -8.425)" fill="#00bac7"/>
    <path id="Path_32" data-name="Path 32" d="M180.927,468.746H177.32a.333.333,0,0,0-.375.38v3.261a.334.334,0,0,0,.375.38h3.607a.334.334,0,0,0,.375-.38v-3.261a.333.333,0,0,0-.375-.38" transform="translate(-3.267 -6.945)" fill="#254399"/>
  </g>
</svg>
