<svg id="Group_9246" data-name="Group 9246" xmlns="http://www.w3.org/2000/svg" width="70" height="32" viewBox="0 0 70 32">
  <g id="Rectangle_1441" data-name="Rectangle 1441" fill="#fff" stroke="#dfe1e5" stroke-width="1">
    <rect width="70" height="32" rx="5" stroke="none"/>
    <rect x="0.5" y="0.5" width="69" height="31" rx="4.5" fill="none"/>
  </g>
  <g id="mada-seeklogo" transform="translate(9 7)">
    <g id="Group_8371" data-name="Group 8371" transform="translate(25.843)">
      <path id="Path_4806" data-name="Path 4806" d="M718.462,354.522c-.034.138-.065.276-.1.413a2.65,2.65,0,0,1-2.776,2.034,5.368,5.368,0,0,1-1.553-.259,1.611,1.611,0,0,0-.581.036c-.258.022-.516.066-.773.067q-3.637.007-7.274,0h-.265l.173-1.142h3.045c-.019.023,0,.013,0,0-.012-.745-.02-1.49-.045-2.236a1.254,1.254,0,0,0-.119-.412,1.072,1.072,0,0,0-1.067-.718h-1.455c.055-.375.1-.718.156-1.063a.16.16,0,0,1,.117-.1,16.873,16.873,0,0,1,2.049.068,2.305,2.305,0,0,1,1.911,2.022,9.521,9.521,0,0,1,.083,1.206c.013.386,0,.778,0,1.183.073.006.132.014.191.014.876,0,1.754,0,2.63.005.181,0,.25-.077.268-.231a2.816,2.816,0,0,0,.014-.328v-2.2a1.481,1.481,0,0,1,1.166-1.6c.324-.1.665-.146,1-.217h.7a1.306,1.306,0,0,0,.157.04,2.578,2.578,0,0,1,2.228,1.952c.046.17.082.343.123.515Zm-3.867-1.871c.018.215.043.4.044.578.005.691.009,1.38,0,2.073,0,.17.055.232.214.243.273.018.545.055.818.06a1.056,1.056,0,0,0,1.136-.838,2.925,2.925,0,0,0,0-1.561.9.9,0,0,0-.568-.683A2.386,2.386,0,0,0,714.595,352.651Z" transform="translate(-692.235 -351.064)"/>
      <path id="Path_4807" data-name="Path 4807" d="M488.746,352.47l-.177,1.154h-3.328a3.5,3.5,0,0,0-.431.02.643.643,0,0,0-.624.722.659.659,0,0,0,.677.681c.52.014,1.041,0,1.562.01a3.683,3.683,0,0,1,.693.07,1.709,1.709,0,0,1,1.4,1.756,2.946,2.946,0,0,1-.083.673,1.565,1.565,0,0,1-1.359,1.176,5.426,5.426,0,0,1-1.039.1c-2.281.005-4.563.01-6.845-.012a2.343,2.343,0,0,1-2.445-2.356,6.225,6.225,0,0,1,.122-2.082,2.417,2.417,0,0,1,2.383-1.841c.718-.013,1.435,0,2.17,0-.055.394-.11.773-.172,1.174h-.82c-.267,0-.535,0-.8.006a1.084,1.084,0,0,0-1.026.7,2.322,2.322,0,0,0-.181.793,7.9,7.9,0,0,0,.055,1.49,1.047,1.047,0,0,0,1.043.936c.669.04,1.341.029,2.013.032q2.208.008,4.416.006a1.794,1.794,0,0,0,.327-.022.785.785,0,0,0-.139-1.56c-.644-.011-1.288,0-1.932-.03a1.582,1.582,0,0,1-1.514-1.122,1.826,1.826,0,0,1,.53-1.981,2.482,2.482,0,0,1,1.5-.5c1.315-.024,2.63-.013,3.946-.015a.45.45,0,0,1,.078.022Z" transform="translate(-476.68 -352.365)"/>
      <path id="Path_4808" data-name="Path 4808" d="M860.225,550.581c-.511-.092-1.021-.194-1.535-.272a1.371,1.371,0,0,0-.442.041,4.218,4.218,0,0,1-1.872.024,1.486,1.486,0,0,1-1.191-1.477,1.427,1.427,0,0,1,1.095-1.559,7.888,7.888,0,0,1,1.394-.2c.318-.03.641,0,.958,0,.154-.652-.146-1.059-.794-1.07a6.01,6.01,0,0,0-2.068.379c-.063.022-.128.04-.212.066-.055-.39-.11-.765-.171-1.155a6.668,6.668,0,0,1,3.382-.442,1.613,1.613,0,0,1,1.42,1.524,1.4,1.4,0,0,0,.036.158Zm-2.161-2.506v-.025a7.172,7.172,0,0,0-.883.132.6.6,0,0,0-.405.682.531.531,0,0,0,.485.526,3.489,3.489,0,0,0,.928-.051c.509-.091.509-.11.5-.63,0-.2.051-.469-.055-.586-.09-.106-.371-.042-.569-.052Z" transform="translate(-833.998 -533.576)"/>
      <path id="Path_4809" data-name="Path 4809" d="M484.849,550.4h-1.613v-3.336a2.718,2.718,0,0,0-.013-.328.593.593,0,0,0-.541-.555,1.789,1.789,0,0,0-1.014.174c.011.453.027.879.029,1.307V550.4h-1.608v-.237c0-1.028-.01-2.056,0-3.083.01-.8-.348-1.008-1.1-.877-.449.079-.448.091-.448.54V550.4H476.91v-4.235c0-.674.172-.9.825-1.08a5.293,5.293,0,0,1,2.457-.166,2.628,2.628,0,0,1,.647.245.312.312,0,0,0,.3.02,3.847,3.847,0,0,1,2.45-.231,1.493,1.493,0,0,1,1.227,1.456c.038,1.054.025,2.11.033,3.164v.827Z" transform="translate(-476.91 -533.581)"/>
      <path id="Path_4810" data-name="Path 4810" d="M748.089,502.925v-2.253c0-.107.014-.181.141-.2.486-.078.97-.163,1.486-.25v6.846c0,.631-.139.825-.74,1.01a5.379,5.379,0,0,1-2.4.179,2.358,2.358,0,0,1-2.042-2.282,4.7,4.7,0,0,1,.114-1.569,2.089,2.089,0,0,1,2.085-1.676,7.383,7.383,0,0,1,1.094.128,2.41,2.41,0,0,1,.262.067Zm0,2.627v-.8c0-.734,0-.734-.742-.8a.994.994,0,0,0-1.137.782,2.963,2.963,0,0,0,0,1.542,1.051,1.051,0,0,0,1.129.843c.177,0,.352-.042.529-.055s.229-.082.221-.259c-.011-.418,0-.836,0-1.253Z" transform="translate(-729.44 -491.427)"/>
      <path id="Path_4811" data-name="Path 4811" d="M640.5,547.061c.055-.822-.2-1.094-.985-1.071a6.344,6.344,0,0,0-1.885.375c-.064.022-.129.041-.221.071-.055-.368-.107-.723-.15-1.08a.147.147,0,0,1,.084-.11,7.57,7.57,0,0,1,2.713-.482,3.51,3.51,0,0,1,.428.046,1.675,1.675,0,0,1,1.57,1.846c.01,1.233,0,2.467,0,3.7a1.033,1.033,0,0,1-.008.145c-.18-.031-.355-.049-.523-.091a4.259,4.259,0,0,0-1.983-.055,2.716,2.716,0,0,1-1.461-.1,1.59,1.59,0,0,1-.1-2.949,3.751,3.751,0,0,1,1.387-.246c.373-.006.749,0,1.134,0Zm.034.981c-.47,0-.9-.028-1.328.008a.637.637,0,0,0-.593.71.6.6,0,0,0,.66.588,8.865,8.865,0,0,0,1.169-.189.149.149,0,0,0,.088-.11c.008-.334,0-.668,0-1.006Z" transform="translate(-628.078 -533.506)"/>
    </g>
    <g id="Group_8370" data-name="Group 8370" transform="translate(0 0.005)">
      <path id="Path_4812" data-name="Path 4812" d="M0,0H20.843V6.906H0Z" fill="#289bd7"/>
      <path id="Path_4813" data-name="Path 4813" d="M0,0H20.843V6.906H0Z" transform="translate(0 9.968)" fill="#85b840"/>
    </g>
  </g>
</svg>
