<svg id="Group_9245" data-name="Group 9245" xmlns="http://www.w3.org/2000/svg" width="70" height="32" viewBox="0 0 70 32">
  <g id="Rectangle_1442" data-name="Rectangle 1442" fill="#fff" stroke="#dfe1e5" stroke-width="1">
    <rect width="70" height="32" rx="5" stroke="none"/>
    <rect x="0.5" y="0.5" width="69" height="31" rx="4.5" fill="none"/>
  </g>
  <g id="visa_1_" data-name="visa (1)" transform="translate(18 10.998)">
    <g id="Group_1717" data-name="Group 1717" transform="translate(3.203)">
      <g id="Group_1716" data-name="Group 1716">
        <path id="Path_533" data-name="Path 533" d="M37.975,100.23,36.27,111.208H39l1.7-10.978ZM46.2,104.7c-.952-.487-1.536-.815-1.536-1.313.012-.453.494-.916,1.57-.916a4.607,4.607,0,0,1,2.03.406l.247.114.371-2.3a6.677,6.677,0,0,0-2.446-.453c-2.691,0-4.587,1.448-4.6,3.518-.022,1.528,1.357,2.376,2.389,2.885,1.054.522,1.413.86,1.413,1.324-.012.712-.853,1.04-1.637,1.04a5.388,5.388,0,0,1-2.558-.566l-.359-.169-.381,2.387a8.261,8.261,0,0,0,3.04.567c2.86,0,4.722-1.426,4.745-3.633.007-1.2-.721-2.131-2.288-2.891Zm9.669-4.438H53.757a1.346,1.346,0,0,0-1.425.883l-4.048,10.061h2.86l.788-2.178h3.2l.409,2.187h2.523Zm-3.141,6.568c.055.006,1.1-3.556,1.1-3.556l.83,3.556ZM34,100.23l-2.67,7.458-.291-1.471a8.119,8.119,0,0,0-3.769-4.457l2.445,9.437h2.884l4.285-10.966H33.992Z" transform="translate(-27.266 -100.23)" fill="#2394bc"/>
      </g>
    </g>
    <path id="Path_534" data-name="Path 534" d="M6.092,101.625a1.794,1.794,0,0,0-1.787-1.377H.044l-.044.2a10.46,10.46,0,0,1,7.019,5.713Z" transform="translate(0 -100.246)" fill="#efc75e"/>
  </g>
</svg>
