<svg id="Group_9244" data-name="Group 9244" xmlns="http://www.w3.org/2000/svg" width="70" height="32" viewBox="0 0 70 32">
  <g id="Rectangle_1443" data-name="Rectangle 1443" fill="#fff" stroke="#dfe1e5" stroke-width="1">
    <rect width="70" height="32" rx="5" stroke="none"/>
    <rect x="0.5" y="0.5" width="69" height="31" rx="4.5" fill="none"/>
  </g>
  <g id="prefix__mastercard" transform="translate(19 6)">
    <g id="Group_8373" data-name="Group 8373" transform="translate(12.156)">
      <path id="Path_496" data-name="Path 496" d="M221.512,110.8a9.956,9.956,0,1,1-9.956-9.956,9.956,9.956,0,0,1,9.956,9.956Z" transform="translate(-201.6 -100.8)" fill="#ffb600"/>
      <path id="Path_497" data-name="Path 497" d="M211.556,100.8a9.978,9.978,0,1,1-9.956,10" transform="translate(-201.6 -100.8)" fill="#f7981d"/>
    </g>
    <g id="Group_8372" data-name="Group 8372">
      <path id="Path_498" data-name="Path 498" d="M352.8,100.8a10,10,0,0,1,0,20" transform="translate(-330.688 -100.8)" fill="#ff8500"/>
      <path id="Path_499" data-name="Path 499" d="M9.851,100.8a10,10,0,1,0,6.8,17.407,9.489,9.489,0,0,0,1-1.058H15.593a12.2,12.2,0,0,1-.737-1h3.529a6.786,6.786,0,0,0,.579-1.058H14.276a6.323,6.323,0,0,1-.421-1.058h5.478a10.548,10.548,0,0,0,.527-3.175,13.716,13.716,0,0,0-.211-2.116H13.538a7.763,7.763,0,0,1,.263-1.058H19.28a6.322,6.322,0,0,0-.421-1.058H14.223a10.508,10.508,0,0,1,.579-1.058h3.529a5.03,5.03,0,0,0-.79-1.058H15.593a9,9,0,0,1,1-1,9.7,9.7,0,0,0-6.69-2.593c0-.107,0-.107-.052-.107Z" transform="translate(0.068 -100.8)" fill="#ff5050"/>
      <path id="Path_500" data-name="Path 500" d="M0,112.294A9.948,9.948,0,0,0,16.646,119.7a9.489,9.489,0,0,0,1-1.058H15.593a12.2,12.2,0,0,1-.737-1.005h3.529a6.788,6.788,0,0,0,.579-1.058H14.276a6.323,6.323,0,0,1-.421-1.058h5.478a10.549,10.549,0,0,0,.527-3.175,13.716,13.716,0,0,0-.211-2.116H13.538a7.763,7.763,0,0,1,.263-1.058H19.28a6.323,6.323,0,0,0-.421-1.058H14.223a10.509,10.509,0,0,1,.579-1.058h3.529a5.03,5.03,0,0,0-.79-1.058H15.593a9,9,0,0,1,1-1A9.7,9.7,0,0,0,9.9,102.4H9.851" transform="translate(0.068 -102.295)" fill="#e52836"/>
      <path id="Path_501" data-name="Path 501" d="M149.705,122.295a10.047,10.047,0,0,0,6.69-2.593,9.492,9.492,0,0,0,1-1.058h-2.054a12.2,12.2,0,0,1-.737-1.005h3.529a6.784,6.784,0,0,0,.579-1.058h-4.688a6.324,6.324,0,0,1-.421-1.058h5.478a10.549,10.549,0,0,0,.527-3.175,13.719,13.719,0,0,0-.211-2.116h-6.111a7.765,7.765,0,0,1,.263-1.058h5.478a6.321,6.321,0,0,0-.421-1.058H153.97a10.5,10.5,0,0,1,.579-1.058h3.529a5.03,5.03,0,0,0-.79-1.058h-1.949a9,9,0,0,1,1-1,9.7,9.7,0,0,0-6.69-2.593H149.6" transform="translate(-140.186 -102.295)" fill="#cb2026"/>
      <g id="Group_1713" data-name="Group 1713" transform="translate(1.016 7.419)">
        <path id="Path_502" data-name="Path 502" d="M183.128,224.636l.158-.9a2.283,2.283,0,0,1-.263.053c-.369,0-.421-.211-.369-.316l.316-1.844h.579l.158-1h-.527l.1-.632h-1.054s-.632,3.477-.632,3.9a.791.791,0,0,0,.843.9A1.617,1.617,0,0,0,183.128,224.636Z" transform="translate(-171.038 -219.526)" fill="#fff"/>
        <path id="Path_503" data-name="Path 503" d="M210.4,231.076a1.676,1.676,0,0,0,1.844,1.844,2.735,2.735,0,0,0,1.106-.158l.211-1a3.157,3.157,0,0,1-1.106.263c-1.159,0-.948-.843-.948-.843h2.16a6.832,6.832,0,0,0,.158-.948,1.427,1.427,0,0,0-1.528-1.528c-1.107-.106-1.9,1.053-1.9,2.37Zm1.844-1.528c.579,0,.474.685.474.737h-1.159C211.559,230.233,211.664,229.548,212.244,229.548Z" transform="translate(-198.044 -227.652)" fill="#fff"/>
        <path id="Path_504" data-name="Path 504" d="M298.9,217.91l.211-1.159a2.589,2.589,0,0,1-.9.263c-.737,0-1.054-.579-1.054-1.212,0-1.264.632-1.949,1.37-1.949a1.759,1.759,0,0,1,.948.316l.158-1.106a3.7,3.7,0,0,0-1.212-.263c-1.212,0-2.423,1.054-2.423,3.055,0,1.317.632,2.212,1.9,2.212a4.726,4.726,0,0,0,1-.157Z" transform="translate(-278.253 -212.8)" fill="#fff"/>
        <path id="Path_505" data-name="Path 505" d="M88.4,227.2a3.731,3.731,0,0,0-1.264.211l-.158.9a3.114,3.114,0,0,1,1.159-.211c.369,0,.685.053.685.369,0,.211-.053.263-.053.263H88.3c-.9,0-1.9.369-1.9,1.58,0,.948.632,1.159,1,1.159A1.583,1.583,0,0,0,88.506,231l-.053.421H89.4l.421-2.9A1.248,1.248,0,0,0,88.4,227.2Zm.211,2.37c0,.158-.105,1-.737,1a.411.411,0,0,1-.421-.421c0-.263.158-.632.948-.632a.831.831,0,0,0,.211.053Z" transform="translate(-81.861 -226.252)" fill="#fff"/>
        <path id="Path_506" data-name="Path 506" d="M136.412,230.72a1.35,1.35,0,0,0,1.58-1.37c0-1.317-1.264-1.054-1.264-1.58,0-.263.211-.369.579-.369.158,0,.737.053.737.053l.158-.948a4,4,0,0,0-1-.105c-.79,0-1.58.316-1.58,1.37,0,1.212,1.317,1.106,1.317,1.58,0,.316-.369.369-.632.369a3.444,3.444,0,0,1-.948-.158l-.158.948c.052.1.315.21,1.211.21Z" transform="translate(-127.579 -225.505)" fill="#fff"/>
        <path id="Path_507" data-name="Path 507" d="M430.2,214.4l-.211,1.422a1.461,1.461,0,0,0-1-.527c-.948,0-1.791,1.159-1.791,2.529,0,.843.421,1.738,1.317,1.738a1.406,1.406,0,0,0,1-.421l-.053.369h1.054l.79-5.057Zm-.474,2.792c0,.579-.263,1.317-.843,1.317-.369,0-.579-.316-.579-.843,0-.843.369-1.37.843-1.37.371,0,.581.264.581.9Z" transform="translate(-401.205 -214.295)" fill="#fff"/>
        <path id="Path_508" data-name="Path 508" d="M15.4,219.457l.632-3.793.1,3.793h.737l1.37-3.793-.579,3.793h1.106l.843-5.057H17.877l-1.054,3.108L16.77,214.4H15.243l-.843,5.057Z" transform="translate(-14.4 -214.295)" fill="#fff"/>
        <path id="Path_509" data-name="Path 509" d="M261.159,232.909c.316-1.738.369-3.161,1.106-2.9a4.133,4.133,0,0,1,.369-1.212h-.211c-.474,0-.843.632-.843.632l.105-.579h-1L260,232.962h1.159Z" transform="translate(-244.498 -227.746)" fill="#fff"/>
        <path id="Path_510" data-name="Path 510" d="M348.4,227.2a3.731,3.731,0,0,0-1.264.211l-.158.9a3.114,3.114,0,0,1,1.159-.211c.369,0,.685.053.685.369,0,.211-.053.263-.053.263H348.3c-.9,0-1.9.369-1.9,1.58,0,.948.632,1.159,1,1.159a1.583,1.583,0,0,0,1.106-.474l-.053.421h.948l.421-2.9A1.23,1.23,0,0,0,348.4,227.2Zm.263,2.37c0,.158-.105,1-.737,1a.411.411,0,0,1-.421-.421c0-.263.158-.632.948-.632.159.053.159.053.212.053Z" transform="translate(-325.47 -226.252)" fill="#fff"/>
        <path id="Path_511" data-name="Path 511" d="M395.559,232.909c.316-1.738.369-3.161,1.106-2.9a4.134,4.134,0,0,1,.369-1.212h-.211c-.474,0-.843.632-.843.632l.105-.579h-1l-.685,4.109h1.159Z" transform="translate(-370.565 -227.746)" fill="#fff"/>
      </g>
      <g id="Group_1714" data-name="Group 1714" transform="translate(1.016 7.419)">
        <path id="Path_512" data-name="Path 512" d="M180,223.9a.791.791,0,0,0,.843.9,2,2,0,0,0,.79-.158l.158-.9a2.275,2.275,0,0,1-.263.053c-.369,0-.421-.211-.369-.316l.316-1.844h.579l.158-1h-.527l.1-.632" transform="translate(-169.541 -219.526)" fill="#dce5e5"/>
        <path id="Path_513" data-name="Path 513" d="M218.4,231.076c0,1.475.474,1.844,1.317,1.844a2.735,2.735,0,0,0,1.106-.158l.211-1a3.157,3.157,0,0,1-1.106.263c-1.159,0-.948-.843-.948-.843h2.16a6.83,6.83,0,0,0,.158-.948,1.427,1.427,0,0,0-1.528-1.528c-1.107-.106-1.37,1.053-1.37,2.37Zm1.317-1.528c.579,0,.685.685.685.737h-1.37C219.032,230.233,219.137,229.548,219.717,229.548Z" transform="translate(-205.529 -227.652)" fill="#dce5e5"/>
        <path id="Path_514" data-name="Path 514" d="M306.371,217.91l.211-1.159a2.589,2.589,0,0,1-.9.263c-.737,0-1.054-.579-1.054-1.212,0-1.264.632-1.949,1.37-1.949a1.759,1.759,0,0,1,.948.316l.158-1.106a3.7,3.7,0,0,0-1.212-.263c-1.212,0-1.9,1.054-1.9,3.055,0,1.317.105,2.212,1.37,2.212A4.727,4.727,0,0,0,306.371,217.91Z" transform="translate(-285.734 -212.8)" fill="#dce5e5"/>
        <path id="Path_515" data-name="Path 515" d="M86.979,229.854a3.114,3.114,0,0,1,1.159-.211c.369,0,.685.053.685.369,0,.211-.053.263-.053.263H88.3c-.9,0-1.9.369-1.9,1.58,0,.948.632,1.159,1,1.159a1.583,1.583,0,0,0,1.106-.474l-.053.421H89.4l.421-2.9c0-1.212-1.054-1.264-1.475-1.264m.79,2.265a1.725,1.725,0,0,1-1.264,1,.411.411,0,0,1-.421-.421c0-.263.158-.632.948-.632a4.3,4.3,0,0,0,.74.056Z" transform="translate(-81.861 -227.746)" fill="#dce5e5"/>
        <path id="Path_516" data-name="Path 516" d="M136,230.614a4.458,4.458,0,0,0,1.212.105,1.35,1.35,0,0,0,1.58-1.37c0-1.317-1.264-1.054-1.264-1.58,0-.263.211-.369.579-.369.158,0,.737.053.737.053L139,226.5a4,4,0,0,0-1-.105c-.79,0-1.054.316-1.054,1.37,0,1.212.79,1.106.79,1.58,0,.316-.369.369-.632.369" transform="translate(-128.329 -225.505)" fill="#dce5e5"/>
        <path id="Path_517" data-name="Path 517" d="M437.411,216.57a1.461,1.461,0,0,0-1-.527c-.948,0-1.264,1.159-1.264,2.529,0,.843-.105,1.738.79,1.738a1.406,1.406,0,0,0,1-.421l-.053.369h1.054l.79-5.057m-1.37,2.739c0,.579-.474,1.317-1.054,1.317-.369,0-.579-.316-.579-.843,0-.843.369-1.37.843-1.37a.8.8,0,0,1,.79.895Z" transform="translate(-408.624 -215.042)" fill="#dce5e5"/>
        <path id="Path_518" data-name="Path 518" d="M15.4,219.457l.632-3.793.1,3.793h.737l1.37-3.793-.579,3.793h1.106l.843-5.057H18.3l-1.475,3.108L16.77,214.4h-.579L14.4,219.457Z" transform="translate(-14.4 -214.295)" fill="#dce5e5"/>
        <path id="Path_519" data-name="Path 519" d="M260.8,232.909h1.106c.316-1.738.369-3.161,1.106-2.9a4.135,4.135,0,0,1,.369-1.212h-.211c-.474,0-.843.632-.843.632l.105-.579" transform="translate(-245.246 -227.746)" fill="#dce5e5"/>
        <path id="Path_520" data-name="Path 520" d="M346.979,229.854a3.113,3.113,0,0,1,1.159-.211c.369,0,.685.053.685.369,0,.211-.053.263-.053.263h-.47c-.9,0-1.9.369-1.9,1.58,0,.948.632,1.159,1,1.159a1.583,1.583,0,0,0,1.106-.474l-.053.421h.948l.421-2.9c0-1.212-1.054-1.264-1.475-1.264m.79,2.265a1.725,1.725,0,0,1-1.264,1,.411.411,0,0,1-.421-.421c0-.263.158-.632.948-.632a4.631,4.631,0,0,0,.739.056Z" transform="translate(-325.47 -227.746)" fill="#dce5e5"/>
        <path id="Path_521" data-name="Path 521" d="M395.2,232.909h1.106c.316-1.738.369-3.161,1.106-2.9a4.136,4.136,0,0,1,.369-1.212h-.211c-.474,0-.843.632-.843.632l.105-.579" transform="translate(-371.312 -227.746)" fill="#dce5e5"/>
      </g>
    </g>
  </g>
</svg>
